# xmcd
#
# Track frame offsets:
# 150
# 22001
# 45334
# 61433
# 78994
# 97538
# 116643
# 136680
# 151737
# 174106
# 189124
# 225572
#
# Disc length: 3032 seconds
#
#
# Revision: 0
# Processed by: cddbd v1.5.1PL0 Copyright (c) Steve Scherf et al.
# Submitted via: FreeRIP 2.91 
#
DISCID=790bd60c
DTITLE=Wolfsheim - Casting Shadows
DYEAR=2003
DGENRE=Blues/Rock
TTITLE0=Everyone Who Casts A Shadow
TTITLE1=Care For You
TTITLE2=I Won`t Believe
TTITLE3=Kein Zurück
TTITLE4=And I....
TTITLE5=Underneath The Veil
TTITLE6=Finde Youre Gone
TTITLE7=This Is For Love
TTITLE8=Wundervoll
TTITLE9=Aproaching Lightspeed
TTITLE10=In Time
TTITLE11=Cover
EXTD=
EXTT0=
EXTT1=
EXTT2=
EXTT3=
EXTT4=
EXTT5=
EXTT6=
EXTT7=
EXTT8=
EXTT9=
EXTT10=
EXTT11=
PLAYORDER=
